<?xml version="1.0" encoding="UTF-8" standalone="no"?>
<!DOCTYPE svg PUBLIC "-//W3C//DTD SVG 20010904//EN" "http://www.w3.org/TR/2001/REC-SVG-20010904/DTD/svg10.dtd">
<svg xmlns="http://www.w3.org/2000/svg" version="1.0" viewBox="0 0 886.000000 887.000000" width="256pt" height="256pt">
<metadata>
Created by potrace 1.15, written by Peter Selinger 2001-2017
</metadata>
<g transform="translate(0.000000,887.000000) scale(0.100000,-0.100000)" fill="#0070c0" stroke="none">
<path d="M4037 8854 c-553 -52 -1038 -185 -1515 -415 -234 -112 -327 -165 -541 -307 -493 -327 -903 -734 -1233 -1227 -400 -597 -635 -1239 -725 -1975 -14 -113 -18 -221 -18 -495 0 -375 9 -485 61 -785 204 -1172 895 -2232 1894 -2902 597 -400 1217 -629 1965 -725 201 -26 807 -26 1010 0 793 101 1480 368 2089 810 863 626 1466 1523 1715 2551 44 179 71 332 98 541 26 203 26 806 0 1020 -124 1014 -561 1917 -1273 2629 -692 692 -1610 1144 -2559 1260 -316 39 -691 47 -968 20z m673 -1014 c285 -82 420 -274 420 -595 0 -341 -163 -552 -478 -617 -129 -27 -388 -21 -497 10 -220 65 -334 172 -397 372 -20 65 -23 96 -23 230 0 173 17 253 77 358 69 122 210 215 383 252 127 28 404 23 515 -10z m360 -4165 l0 -2355 -645 0 -645 0 0 2348 c0 1292 3 2352 7 2355 3 4 294 7 645 7 l638 0 0 -2355z"/>
</g>
</svg>